<?xml version="1.0" encoding="UTF-8"?>
<svg id="Ebene_2" data-name="Ebene 2" xmlns="http://www.w3.org/2000/svg" width="468.1704" height="139.658788" viewBox="0 0 46.81704 13.965879">
  <defs>
    <style>
      .cls-1 {
        fill: #e55746;
      }

      .cls-1, .cls-2, .cls-3 {
        stroke-width: 0px;
      }

      .cls-2 {
        fill: #0014e6;
      }

      .cls-3 {
        fill: #00b5e4;
      }
    </style>
  </defs>
  <g id="Ebene_1-2" data-name="Ebene 1">
    <path class="cls-1" d="M33.207117,11.68046c0,.1839-.149056.332958-.332956.332958s-.332956-.149058-.332956-.332958c0-.183897.149056-.332955.332956-.332955s.332956.149058.332956.332955"/>
    <g>
      <g>
        <path class="cls-3" d="M12.24746,7.133848h-2.029785l-.445068.985107h-.275146l1.610107-3.5h.254883l1.610107,3.5h-.274902l-.450195-.985107ZM12.152489,6.919004l-.919922-2.02002-.915039,2.02002h1.834961Z"/>
        <path class="cls-3" d="M15.537499,5.773984c.189941.189941.284912.463379.284912.820068v1.524902h-.25v-1.504883c0-.293457-.074219-.516846-.222412-.670166-.148438-.15332-.355957-.22998-.622559-.22998-.306641,0-.54834.091797-.725098.275146s-.264893.429932-.264893.73999v1.389893h-.25v-2.610107h.23999v.565186c.090088-.18335.224121-.32666.402588-.430176.178223-.103271.388916-.154785.632324-.154785.32666,0,.584961.094971.775146.284912Z"/>
        <path class="cls-3" d="M19.13247,4.408994v3.709961h-.245117v-.61499c-.103271.203369-.248291.360107-.435059.469971-.186523.110107-.398193.165039-.63501.165039-.243164,0-.463379-.056641-.659912-.169922-.196777-.113281-.35083-.27002-.462402-.470215-.111816-.199951-.16748-.428223-.16748-.684814s.055664-.48584.16748-.6875c.111572-.20166.265625-.358398.462402-.469971.196533-.111816.416748-.16748.659912-.16748.233398,0,.442627.054932.627686.164795.184814.110107.330566.263428.4375.460205v-1.705078h.25ZM18.369774,7.773984c.158447-.093262.283447-.223389.375-.390137.091797-.166504.137695-.356445.137695-.569824s-.045898-.40332-.137695-.570068c-.091553-.166748-.216553-.296631-.375-.389893-.158203-.093506-.337402-.140137-.537354-.140137s-.37915.046631-.537598.140137c-.158203.093262-.283203.223145-.375.389893-.091553.166748-.137451.356689-.137451.570068s.045898.40332.137451.569824c.091797.166748.216797.296875.375.390137.158447.093262.337646.139893.537598.139893s.37915-.046631.537354-.139893Z"/>
        <path class="cls-3" d="M20.762352,5.641416c.169922-.101562.376709-.152344.619873-.152344v.244873l-.059814-.004883c-.290039,0-.516846.09082-.680176.272461s-.244873.434082-.244873.757324v1.360107h-.25v-2.610107h.23999v.570068c.080078-.189941.205078-.335693.375-.4375Z"/>
        <path class="cls-3" d="M22.429833,7.969053c-.198486-.113281-.354248-.270996-.467529-.472656s-.169922-.429199-.169922-.682373c0-.253418.056641-.480957.169922-.682617s.269043-.359131.467529-.472412c.198242-.113281.420654-.169922.66748-.169922.246582,0,.468994.056641.66748.169922.198242.113281.354004.270752.467529.472412.113281.20166.169922.429199.169922.682617,0,.253174-.056641.480713-.169922.682373-.113525.20166-.269287.359375-.467529.472656-.198486.113281-.420898.169922-.66748.169922-.246826,0-.469238-.056641-.66748-.169922ZM23.634667,7.773984c.158447-.093262.283447-.223389.375-.390137.091797-.166504.137695-.356445.137695-.569824s-.045898-.40332-.137695-.570068c-.091553-.166748-.216553-.296631-.375-.389893-.158203-.093506-.337402-.140137-.537354-.140137s-.37915.046631-.537598.140137c-.158203.093262-.283203.223145-.375.389893-.091553.166748-.137451.356689-.137451.570068s.045898.40332.137451.569824c.091797.166748.216797.296875.375.390137.158447.093262.337646.139893.537598.139893s.37915-.046631.537354-.139893Z"/>
        <path class="cls-3" d="M25.117333,4.816465c-.040039-.03833-.060059-.085693-.060059-.142578,0-.056641.02002-.10498.060059-.14502.040039-.039795.088379-.059814.14502-.059814s.10498.019043.14502.057373.060059.085938.060059.142578-.02002.10498-.060059.14502-.088379.059814-.14502.059814-.10498-.019043-.14502-.057373ZM25.137352,5.508848h.25v2.610107h-.25v-2.610107Z"/>
        <path class="cls-3" d="M28.722313,4.408994v3.709961h-.245117v-.61499c-.103271.203369-.248291.360107-.435059.469971-.186523.110107-.398193.165039-.63501.165039-.243164,0-.463379-.056641-.659912-.169922-.196777-.113281-.35083-.27002-.462402-.470215-.111816-.199951-.16748-.428223-.16748-.684814s.055664-.48584.16748-.6875c.111572-.20166.265625-.358398.462402-.469971.196533-.111816.416748-.16748.659912-.16748.233398,0,.442627.054932.627686.164795.184814.110107.330566.263428.4375.460205v-1.705078h.25ZM27.959618,7.773984c.158447-.093262.283447-.223389.375-.390137.091797-.166504.137695-.356445.137695-.569824s-.045898-.40332-.137695-.570068c-.091553-.166748-.216553-.296631-.375-.389893-.158203-.093506-.337402-.140137-.537354-.140137s-.37915.046631-.537598.140137c-.158203.093262-.283203.223145-.375.389893-.091553.166748-.137451.356689-.137451.570068s.045898.40332.137451.569824c.091797.166748.216797.296875.375.390137.158447.093262.337646.139893.537598.139893s.37915-.046631.537354-.139893Z"/>
        <path class="cls-3" d="M33.127099,8.118955l-.004883-2.995117-1.465088,2.530029h-.125l-1.464844-2.52002v2.985107h-.25v-3.5h.214844l1.564941,2.705078,1.565186-2.705078h.209961l.004883,3.5h-.25Z"/>
        <path class="cls-3" d="M36.102196,5.736387c.17334.165039.26001.407471.26001.727539v1.655029h-.23999v-.465088c-.083496.153564-.205078.272705-.36499.357666-.160156.084961-.351807.127441-.574951.127441-.290039,0-.519287-.068359-.6875-.205078-.168457-.136475-.252686-.31665-.252686-.540039,0-.216553.077637-.392334.232666-.527344s.402344-.202637.742432-.202637h.89502v-.209961c0-.243164-.065918-.428223-.19751-.554932-.131836-.126709-.324219-.189941-.577637-.189941-.17334,0-.339111.030029-.497314.089844-.158447.060059-.29248.140137-.402588.23999l-.125-.179932c.130127-.116699.286621-.20752.469971-.272461s.375-.097412.574951-.097412c.323486,0,.571777.082275.745117.247314ZM35.769677,7.783994c.151611-.100098.265869-.245117.342529-.435059v-.48999h-.890137c-.256592,0-.442383.046631-.557373.139893-.11499.093506-.172607.221924-.172607.38501,0,.170166.063477.304443.190186.402588.126465.098389.304932.147461.534912.147461.216553,0,.400879-.050049.55249-.149902Z"/>
        <path class="cls-3" d="M38.282128,6.723935l-.679932.620117v.774902h-.25v-3.709961h.25v2.625l1.669922-1.525146h.320068l-1.125,1.055176,1.234863,1.554932h-.309814l-1.110107-1.39502Z"/>
        <path class="cls-3" d="M42.457177,6.873838h-2.245117c.006592.203369.05835.384277.155029.542725.09668.158203.227539.280762.392578.367432.164795.08667.350586.129883.557373.129883.169922,0,.327637-.030762.472412-.092529.14502-.061523.265869-.152344.362549-.272461l.14502.165039c-.113281.136719-.255859.241699-.42749.314941-.171631.073486-.357422.110107-.557373.110107-.26001,0-.491699-.056641-.695068-.169922s-.362549-.27002-.477539-.470215c-.11499-.199951-.172363-.428223-.172363-.684814,0-.253418.053955-.480957.162354-.682617s.257568-.359131.44751-.472412.40332-.169922.640137-.169922c.236572,0,.448975.055664.637451.16748.188232.111572.33667.267334.444824.467285.108398.200195.162598.426758.162598.680176l-.004883.069824ZM40.722069,5.831357c-.146729.081787-.26416.196777-.352539.345215-.088379.148193-.13916.315674-.152344.502441h2c-.01001-.186768-.060059-.353271-.150146-.5s-.208252-.261719-.35498-.344971-.311768-.125-.494873-.125c-.183594,0-.348389.040771-.495117.122314Z"/>
        <path class="cls-3" d="M43.812157,5.641416c.169922-.101562.376709-.152344.619873-.152344v.244873l-.059814-.004883c-.290039,0-.516846.09082-.680176.272461s-.244873.434082-.244873.757324v1.360107h-.25v-2.610107h.23999v.570068c.080078-.189941.205078-.335693.375-.4375Z"/>
        <path class="cls-3" d="M45.187157,8.044004c-.190186-.063232-.338379-.143311-.445068-.23999l.11499-.199951c.106689.089844.244141.164795.412598.224854.168213.060059.343994.090088.527344.090088.263428,0,.45752-.043213.58252-.130127.125-.08667.1875-.206543.1875-.359863,0-.110107-.03418-.196777-.102539-.26001s-.152344-.110107-.252441-.140137-.238281-.061523-.415039-.094971c-.206787-.036621-.373291-.07666-.5-.119873-.126709-.043457-.234863-.113281-.324951-.209961s-.13501-.230225-.13501-.400146c0-.206543.085693-.377441.257568-.512451.171631-.13501.415771-.202393.732422-.202393.166748,0,.331543.023193.495117.069824.163086.046875.296631.108398.399902.185059l-.11499.199951c-.106689-.07666-.228271-.13501-.36499-.175049-.136719-.039795-.276855-.059814-.419922-.059814-.243408,0-.426758.044922-.550049.13501-.123291.089844-.185059.208252-.185059.35498,0,.116699.034912.20752.10498.272461s.155762.113281.257568.14502c.101562.031738.244141.065918.42749.102539.203369.036621.367432.075684.492432.117432s.230713.109131.317627.202393c.08667.093506.129883.22168.129883.38501,0,.216797-.090088.390137-.27002.52002-.179932.130127-.43335.195068-.76001.195068-.209961,0-.409912-.031738-.599854-.094971Z"/>
      </g>
      <g>
        <path class="cls-2" d="M22.117821,10.513486c.196533.111572.35083.268311.462402.469971.111816.20166.16748.430908.16748.6875s-.055664.484863-.16748.684814c-.111572.200195-.265869.356934-.462402.470215-.196777.113281-.416748.169922-.659912.169922-.233398,0-.444336-.055908-.632568-.16748-.188477-.111572-.334229-.267578-.4375-.467529v.61499h-.23999v-3.709961h.25v1.695068c.103271-.193359.248291-.344238.435059-.452637.186523-.108154.39502-.162354.625-.162354.243164,0,.463135.055664.659912.16748ZM21.982811,12.630918c.159912-.093262.285889-.223389.377441-.390137.091797-.166504.137451-.356445.137451-.569824s-.045654-.40332-.137451-.570068c-.091553-.166748-.217529-.296631-.377441-.389893-.159912-.093506-.340088-.140137-.540039-.140137s-.37915.046631-.537354.140137c-.158447.093262-.283447.223145-.375.389893-.091797.166748-.137695.356689-.137695.570068s.045898.40332.137695.569824c.091553.166748.216553.296875.375.390137.158203.093262.337402.139893.537354.139893s.380127-.046631.540039-.139893Z"/>
        <path class="cls-2" d="M25.577782,10.365781l-1.340088,2.965088c-.099854.22998-.21582.393311-.347412.48999-.131836.09668-.287598.14502-.467529.14502-.119873,0-.232422-.02002-.337402-.060059s-.194092-.098389-.267578-.175049l.125-.189941c.133301.136719.294922.205078.485107.205078.126465,0,.234863-.034912.324951-.10498.089844-.070068.17334-.189941.25-.360107l.139893-.314941-1.175049-2.600098h.265137l1.044922,2.335205,1.045166-2.335205h.254883Z"/>
      </g>
      <path class="cls-2" d="M42.450384,12.376953c-.384642,0-.696544-.311794-.696544-.696544,0-.38464.311902-.696438.696544-.696438s.696438.311798.696438.696438c0,.384749-.311798.696544-.696438.696544M42.450384,10.385009c-.715492,0-1.295506.580015-1.295506,1.2954,0,.715494.580014,1.295506,1.295506,1.295506s1.2954-.580012,1.2954-1.295506c0-.715385-.579909-1.2954-1.2954-1.2954"/>
      <path class="cls-2" d="M32.874173,12.376953c-.384642,0-.696439-.311794-.696439-.696544,0-.38464.311797-.696438.696439-.696438s.696438.311798.696438.696438c0,.384749-.311797.696544-.696438.696544M32.874173,10.385009c-.715492,0-1.295506.580015-1.295506,1.2954,0,.715494.580014,1.295506,1.295506,1.295506s1.295505-.580012,1.295505-1.295506c0-.715385-.580014-1.2954-1.295505-1.2954"/>
      <path class="cls-2" d="M28.23767,12.376962c-.384641,0-.696438-.311794-.696438-.696544,0-.38464.311797-.696438.696438-.696438.384746,0,.696543.311798.696543.696438,0,.384749-.311797.696544-.696543.696544M29.533175,11.680419v-2.413003h-.598962v1.320977c-.201163-.128527-.440011-.203374-.696543-.203374-.715386,0-1.2954.580015-1.2954,1.2954,0,.715494.580014,1.295506,1.2954,1.295506.715491,0,1.295506-.580012,1.295506-1.295506Z"/>
      <path class="cls-2" d="M36.992577,12.376953c-.384747,0-.696544-.311798-.696544-.696544,0-.38464.311797-.696438.696544-.696438.38464,0,.696438.311798.696438.696438,0,.384746-.311798.696544-.696438.696544M38.287977,9.267403h-.598962v1.320981c-.201164-.12853-.440012-.203374-.696438-.203374-.715492,0-1.295506.580015-1.295506,1.2954,0,.715491.580014,1.295506,1.295506,1.295506.715385,0,1.2954-.580015,1.2954-1.295506v-2.413006Z"/>
      <rect class="cls-2" x="34.627951" y="10.385009" width=".598962" height="2.590906"/>
      <path class="cls-2" d="M29.995008,11.680451h0v1.2954h.598961v-1.2954c0-.38464.311798-.696438.696439-.696438v-.598962c-.715386,0-1.2954.579909-1.2954,1.2954"/>
      <path class="cls-2" d="M40.441188,12.172936c-.126004.126005-.300114.204007-.492434.204007-.384746,0-.696544-.311798-.696544-.696438,0-.384746.311798-.696544.696544-.696544.19232,0,.36643.078002.492434.204004l.423588-.423482c-.234426-.234532-.558329-.379484-.916022-.379484-.715491,0-1.295504.580015-1.295504,1.295506,0,.715385.580014,1.2954,1.295504,1.2954.357692,0,.681596-.144952.916022-.379484l-.423588-.423485Z"/>
      <path class="cls-2" d="M45.46033,10.385009c-.715492,0-1.295506.580015-1.295506,1.2954h-.000106v1.295506h.598858v-1.295506h.000315c0-.38464.311798-.696438.696439-.696438s.696438.311798.696438.696438v1.295506h.598962v-1.295506c0-.715385-.579909-1.2954-1.2954-1.2954"/>
      <g id="layer1">
        <path id="path4805" class="cls-3" d="M8.136218,0L0,8.136219h8.136218V0"/>
        <path id="path4811" class="cls-1" d="M4.062048,8.135598l-1.358058-2.723973L8.136218,0l-4.074171,8.135598Z"/>
        <path id="path4813" class="cls-1" d="M0,0l4.062456,4.073762L0,8.1354V0Z"/>
      </g>
    </g>
  </g>
</svg>