<svg version="1.2" xmlns="http://www.w3.org/2000/svg" viewBox="0 0 150 61" width="150" height="61">
	<title>kcd</title>
	<style>
		.s0 { fill: #ffffff } 
		.s1 { fill: #466bb0 } 
		.s2 { fill: #cfdbe8 } 
		.s3 { opacity: .75;fill: #ffffff } 
		.s4 { fill: none;stroke: #466bb0;stroke-linejoin: round;stroke-width: .3 } 
		.s5 { fill: #ffffff;stroke: #466bb0;stroke-linejoin: round;stroke-width: .8 } 
		.s6 { fill: none;stroke: #466bb0;stroke-linecap: round;stroke-linejoin: round;stroke-width: .3 } 
	</style>
	<g id="Calque_2">
		<g id="Calque_3">
			<g id="g832">
				<path id="path828" class="s0" d="m63.9 26.1q0-0.1 0.1-0.2 0-0.1 0.1-0.2 0-0.1 0-0.2 0-0.1 0-0.2 0-0.3-0.1-0.6-0.1-0.3-0.3-0.5-0.2-0.3-0.5-0.4-0.3-0.1-0.6-0.1-0.1 0-0.1 0-0.1 0-0.1 0 0 0-0.1 0 0 0 0 0c0.2-0.9 0.1-2-0.3-2.9-0.4-0.9-1.1-1.6-2-2.1-0.9-0.4-1.9-0.5-2.9-0.3-0.9 0.2-1.8 0.8-2.4 1.5q-0.4-0.3-1-0.4-0.5-0.1-1 0.1-0.5 0.3-0.8 0.7-0.3 0.5-0.3 1 0 0.1 0 0.2 0 0.1 0 0.2 0 0.1 0.1 0.2 0 0 0 0.1h-0.1q-0.7 0-1.3 0.4-0.6 0.4-0.9 1.1-0.3 0.6-0.2 1.4 0.1 0.7 0.5 1.2z"/>
				<path id="path830" class="s1" d="m63.9 26.5h-14.2q0 0 0 0-0.1-0.1-0.1-0.1 0 0-0.1 0 0 0 0-0.1-0.5-0.5-0.7-1.3-0.1-0.8 0.2-1.5 0.3-0.8 0.9-1.2 0.6-0.5 1.4-0.6 0 0 0-0.1 0 0 0-0.1-0.1 0-0.1-0.1 0 0 0 0 0-0.7 0.4-1.2 0.3-0.5 0.8-0.8 0.5-0.3 1.1-0.3 0.6 0 1.1 0.4c0.7-0.8 1.6-1.3 2.6-1.5 1-0.2 2-0.1 2.9 0.4 0.9 0.4 1.7 1.1 2.1 2 0.5 0.9 0.6 2 0.5 3q0.5 0 0.9 0.3 0.4 0.2 0.7 0.7 0.2 0.5 0.2 1-0.1 0.5-0.3 0.9-0.1 0-0.1 0.1 0 0-0.1 0 0 0 0 0-0.1 0.1-0.1 0.1zm-14-0.7h13.8q0-0.1 0-0.1 0.1-0.1 0.1-0.2 0 0 0-0.1 0-0.1 0-0.1 0-0.3-0.1-0.5-0.1-0.2-0.3-0.4-0.1-0.2-0.4-0.3-0.2-0.1-0.4-0.1-0.1 0-0.1 0 0 0-0.1 0.1 0 0 0 0 0 0-0.1 0 0 0-0.1 0 0 0 0 0-0.1-0.1-0.1-0.1-0.1 0-0.1 0 0-0.1 0-0.1-0.1 0-0.1-0.1 0 0 0-0.1 0 0 0-0.1 0.3-0.9 0.1-1.8-0.2-0.9-0.8-1.6-0.5-0.8-1.4-1.2-0.8-0.4-1.7-0.4-0.5 0-0.9 0.1-0.4 0.1-0.8 0.3-0.5 0.2-0.8 0.5-0.4 0.3-0.6 0.6-0.1 0.1-0.1 0.1-0.1 0.1-0.2 0.1 0 0-0.1 0-0.1-0.1-0.1-0.1-0.4-0.4-1-0.4-0.5 0-0.9 0.3-0.5 0.3-0.6 0.8-0.2 0.5 0 1 0.1 0.1 0 0.2 0 0 0 0.1-0.1 0.1-0.1 0.1-0.1 0.1-0.2 0.1h-0.1q-0.6 0-1.1 0.3-0.6 0.3-0.8 0.8-0.3 0.6-0.2 1.2 0 0.6 0.4 1.1z"/>
			</g>
			<path id="polygon836" fill-rule="evenodd" class="s0" d="m58.1 36.6v21.6l-1.5 2.2h-10.2l1.3-25.5-1.1 0.6-2.8 1.9-0.2-14.4 2.8-1.9 0.2-4.2 2.8 2.3v4.9l0.2 7.1h3z"/>
			<path id="path838" class="s2" d="m58 60h83.4c0-10.1-16.5-36.1-51.4-22.1-17.4 6.9-25.6 7.1-32 5.7z"/>
			<path id="path840" class="s2" d="m40.5 40.4q-1.6 0-3.5 0.2c-20.2 2.4-25.4 19.4-25.4 19.4h28.9z"/>
			<g id="g846">
				<path id="path842" class="s0" d="m28.5 43.4c0.5-0.6 0.7-1.3 0.6-2.1-0.2-0.7-0.7-1.4-1.4-1.7-0.7-0.3-1.5-0.2-2.1 0.2-0.7 0.4-1.1 1.2-1.1 1.9q-0.1 0-0.1 0-0.1-0.1-0.2-0.1-0.1 0-0.2 0 0 0-0.1 0-0.4 0-0.7 0.1-0.3 0.2-0.5 0.4-0.3 0.2-0.4 0.6-0.1 0.3-0.1 0.6 0 0 0 0 0 0 0 0.1 0 0 0 0 0 0 0 0z"/>
				<path id="path844" class="s1" d="m28.5 43.7h-6.3q-0.1 0-0.2 0 0 0-0.1-0.1 0 0 0-0.1-0.1 0-0.1-0.1 0 0 0-0.1 0-0.4 0.2-0.8 0.2-0.4 0.4-0.6 0.3-0.3 0.7-0.5 0.4-0.2 0.8-0.2 0 0 0.1 0 0 0.1 0.1 0.1 0 0 0.1 0 0 0 0.1 0c0.1-0.7 0.4-1.3 1-1.7 0.5-0.4 1.1-0.6 1.8-0.5 0.6 0.1 1.3 0.4 1.7 0.9 0.4 0.5 0.7 1.1 0.7 1.8q0 0.2-0.1 0.5 0 0.2-0.1 0.5-0.1 0.2-0.3 0.4-0.1 0.2-0.3 0.4 0 0 0 0.1-0.1 0-0.1 0 0 0-0.1 0 0 0 0 0zm-6-0.7h5.8q0.4-0.4 0.5-1 0.1-0.5-0.2-1.1-0.2-0.5-0.7-0.8-0.5-0.3-1.1-0.3-0.3 0-0.7 0.1-0.3 0.2-0.6 0.5-0.3 0.2-0.5 0.6-0.1 0.3-0.1 0.7 0 0.1 0 0.1 0 0-0.1 0.1 0 0 0 0 0 0.1-0.1 0.1 0 0 0 0-0.1 0-0.1 0-0.1 0-0.1 0 0 0-0.1 0 0 0-0.1 0-0.1 0-0.1-0.1-0.1 0-0.2 0 0 0-0.1 0-0.2 0-0.5 0.1-0.2 0.1-0.4 0.2-0.2 0.2-0.3 0.4-0.1 0.2-0.2 0.4z"/>
			</g>
			<g id="g852">
				<path id="polyline848" fill-rule="evenodd" class="s0" d="m40.5 60.4v-20.9l7.4-4.9v25.8"/>
				<path id="path850" class="s1" d="m47.9 60.8q0 0-0.1 0-0.1 0-0.1-0.1-0.1 0-0.1-0.1 0-0.1 0-0.2v-25l-6.7 4.4v20.6q0 0.2-0.1 0.3-0.1 0.1-0.3 0.1-0.1 0-0.3-0.1-0.1-0.1-0.1-0.3v-20.9q0 0 0-0.1 0 0 0.1 0 0-0.1 0-0.1 0.1-0.1 0.1-0.1l7.4-4.9q0.1-0.1 0.2-0.1 0.1 0 0.2 0.1 0.1 0 0.2 0.1 0 0.1 0 0.2v25.8q0 0.1 0 0.2 0 0-0.1 0.1 0 0.1-0.1 0.1-0.1 0-0.2 0z"/>
			</g>
			<g id="g858">
				<path id="line854" fill-rule="evenodd" class="s0" d="m52.1 36.2v24.2"/>
				<path id="path856" class="s1" d="m52.1 60.8q-0.1 0-0.2 0 0 0-0.1-0.1-0.1 0-0.1-0.1 0-0.1 0-0.2v-24.2q0-0.2 0.1-0.3 0.1-0.1 0.3-0.1 0.1 0 0.3 0.1 0.1 0.1 0.1 0.3v24.2q0 0.1-0.1 0.2 0 0.1 0 0.1-0.1 0.1-0.2 0.1 0 0-0.1 0z"/>
			</g>
			<path id="path860" class="s1" d="m58.2 60.8q-0.1 0-0.2 0-0.1 0-0.1-0.1-0.1 0-0.1-0.1 0-0.1 0-0.2v-24l-5.4-4.7h-5.6v3.9q0 0.2-0.1 0.3-0.1 0.1-0.3 0.1-0.1 0-0.2-0.1-0.1-0.1-0.1-0.3v-4.3q0-0.1 0-0.2 0-0.1 0.1-0.1 0-0.1 0.1-0.1 0.1 0 0.1 0h6.1q0 0 0.1 0 0 0 0 0 0.1 0 0.1 0 0 0 0.1 0.1l5.6 4.9q0 0 0.1 0.1 0 0 0 0 0 0.1 0 0.1 0 0 0 0.1v24.2q0 0.1 0 0.2 0 0-0.1 0.1 0 0.1-0.1 0.1-0.1 0-0.1 0z"/>
			<path id="path862" class="s1" d="m58.2 36.6h-6.1q-0.1 0-0.1 0 0 0-0.1 0 0 0 0-0.1-0.1 0-0.1 0l-5.6-4.9q-0.2-0.2-0.2-0.3 0-0.2 0.1-0.3 0.1-0.1 0.3-0.1 0.2-0.1 0.3 0.1l5.5 4.8h6q0.1 0 0.2 0.1 0.2 0.1 0.2 0.3 0 0.2-0.2 0.3-0.1 0.1-0.2 0.1z"/>
			<path id="path864" class="s1" d="m43.6 37.9q-0.1 0-0.1 0-0.1-0.1-0.2-0.1 0-0.1 0-0.2-0.1 0-0.1-0.1v-14.5q0-0.1 0-0.1 0.1-0.1 0.1-0.1 0-0.1 0-0.1 0.1 0 0.1-0.1l5.9-3.7q0.1 0 0.1 0 0.1 0 0.1 0 0.1 0 0.1 0 0.1 0 0.1 0 0.1 0 0.1 0.1 0.1 0 0.1 0.1 0 0 0 0.1 0 0 0 0.1v12q0 0.1-0.1 0.3-0.1 0.1-0.2 0.1-0.2 0-0.3-0.1-0.1-0.2-0.1-0.3v-11.3l-5.2 3.2v14.3q0 0.1 0 0.1 0 0.1-0.1 0.2-0.1 0-0.1 0.1-0.1 0-0.2 0z"/>
			<path id="polygon866" fill-rule="evenodd" class="s3" d="m33.4 60.4h29.1l-14.6-19.3z"/>
			<path id="path868" class="s1" d="m62.5 60.8h-29.1q-0.1 0-0.2 0-0.1-0.1-0.1-0.2-0.1-0.1-0.1-0.2 0-0.1 0.1-0.2l14.5-19.4q0.1 0 0.2-0.1 0.1 0 0.1 0 0.1 0 0.2 0 0.1 0.1 0.2 0.1l14.5 19.4q0.1 0.1 0.1 0.2 0 0.1-0.1 0.2 0 0.1-0.1 0.2-0.1 0-0.2 0zm-28.3-0.8h27.5l-13.8-18.3z"/>
			<path id="path870" class="s1" d="m42.2 60.6h-0.1q0 0 0-0.1 0 0 0 0 0 0-0.1-0.1 0 0 0.1 0l5.7-19.4q0 0 0.1-0.1 0 0 0.1 0 0 0.1 0.1 0.1 0 0.1 0 0.1l-5.8 19.4q0 0 0 0 0 0 0 0-0.1 0-0.1 0.1 0 0 0 0z"/>
			<g id="g876">
				<path id="path872" class="s0" d="m106.7 26.5c0.7-0.6 1.3-1.5 1.5-2.4 0.2-0.9 0.1-1.9-0.3-2.8-0.3-0.9-1-1.6-1.9-2-0.8-0.5-1.8-0.6-2.7-0.4-0.6-1.3-1.5-2.4-2.8-3-1.2-0.7-2.6-0.9-4-0.6-1.4 0.3-2.6 1-3.5 2.1-0.9 1.1-1.3 2.5-1.3 3.9q0 0.2 0 0.5 0 0-0.1 0 0 0-0.1 0 0 0 0 0-0.1 0-0.1 0c-0.5 0-1.1 0.1-1.5 0.4-0.5 0.3-0.8 0.8-1 1.3-0.2 0.5-0.3 1-0.2 1.6 0.1 0.5 0.4 1 0.8 1.4z"/>
				<path id="path874" class="s1" d="m106.7 26.8h-17.2q0 0-0.1 0 0 0-0.1 0 0 0 0 0 0 0-0.1-0.1c-0.4-0.4-0.7-0.9-0.8-1.5-0.1-0.6-0.1-1.3 0.1-1.8 0.3-0.6 0.6-1.1 1.1-1.4 0.5-0.4 1.1-0.6 1.7-0.6v-0.1c0-1.5 0.5-2.9 1.4-4 0.9-1.2 2.2-2 3.6-2.3 1.4-0.3 2.9-0.2 4.2 0.5 1.3 0.6 2.4 1.6 3 3q0.1-0.1 0.1-0.1 0.1 0 0.2 0 0 0 0.1 0 0.1 0 0.1 0c1 0 1.9 0.3 2.7 0.9 0.8 0.5 1.4 1.3 1.7 2.3 0.3 0.9 0.4 1.9 0.1 2.8-0.3 0.9-0.8 1.8-1.6 2.4q0 0 0 0-0.1 0-0.1 0 0 0 0 0-0.1 0-0.1 0zm-17-0.7h16.9c0.6-0.5 1-1.2 1.2-2 0.2-0.8 0.2-1.6-0.1-2.4-0.3-0.7-0.8-1.4-1.4-1.8-0.7-0.5-1.5-0.7-2.3-0.7q-0.1 0-0.1 0-0.1 0-0.2 0-0.1 0-0.2 0-0.1 0-0.1 0-0.1 0-0.2 0 0 0-0.1 0 0 0-0.1-0.1 0 0-0.1-0.1c-0.5-1.2-1.4-2.2-2.6-2.8-1.1-0.6-2.4-0.8-3.7-0.5-1.3 0.3-2.5 1-3.3 2-0.8 1-1.3 2.3-1.2 3.6q-0.1 0.2 0 0.5 0 0 0 0.1 0 0-0.1 0 0 0.1 0 0.1 0 0 0 0.1-0.1 0-0.1 0 0 0-0.1 0.1 0 0-0.1 0 0 0 0 0-0.1 0-0.1 0 0 0-0.1 0 0 0 0 0-0.1 0-0.1 0-0.5 0-0.9 0.1-0.4 0.2-0.8 0.6-0.3 0.3-0.5 0.7-0.1 0.4-0.1 0.9 0 0.2 0 0.4 0 0.3 0.1 0.5 0.1 0.2 0.2 0.3 0.1 0.2 0.3 0.4z"/>
			</g>
			<g id="g882">
				<path id="path878" class="s0" d="m136.1 29.2c-0.1-0.6-0.5-1.1-0.9-1.5-0.5-0.4-1-0.6-1.6-0.6-0.6 0-1.2 0.2-1.7 0.6-0.4 0.4-0.7 0.9-0.8 1.5z"/>
				<path id="path880" class="s1" d="m136.1 29.5h-5q-0.1 0-0.2 0 0 0-0.1-0.1 0 0 0-0.1-0.1-0.1-0.1-0.1c0.1-0.7 0.5-1.3 1-1.8 0.5-0.4 1.2-0.7 1.9-0.7 0.6 0 1.3 0.3 1.8 0.7 0.5 0.5 0.9 1.1 1 1.8q0 0 0 0.1-0.1 0.1-0.1 0.1 0 0.1-0.1 0.1-0.1 0-0.1 0zm-4.7-0.6h4.3c-0.2-0.5-0.5-0.9-0.8-1.1-0.4-0.3-0.9-0.5-1.3-0.5-0.5 0-1 0.2-1.3 0.5-0.4 0.2-0.7 0.6-0.9 1.1z"/>
			</g>
			<path id="path884" class="s1" d="m46.4 21.6q0 0-0.1 0-0.1-0.1-0.1-0.1-0.1-0.1-0.1-0.1-0.1-0.1-0.1-0.2v-4.6q0 0 0.1-0.1 0 0 0-0.1 0 0 0.1-0.1 0 0 0.1 0 0-0.1 0.1-0.1 0 0 0.1 0 0 0 0.1 0.1 0 0 0.1 0l3.1 2.6q0.1 0.1 0.2 0.3 0 0.2-0.1 0.3-0.1 0.1-0.3 0.2-0.2 0-0.3-0.2l-2.5-2v3.7q0 0.1 0 0.2 0 0-0.1 0.1 0 0-0.1 0.1-0.1 0-0.2 0z"/>
			<g id="g986">
				<path id="path954" class="s0" d="m102.4 32v28.4h8v-13.3c0-1.4 0.6-2.8 1.6-3.8 1-1 2.4-1.6 3.8-1.6 1.4 0 2.8 0.6 3.8 1.6 1 1 1.6 2.4 1.6 3.8v13.3h7.8v-28.4z"/>
				<path id="rect956" fill-rule="evenodd" class="s4" d="m127.3 40.1v4.5h-4.6v-4.5z"/>
				<path id="rect958" fill-rule="evenodd" class="s4" d="m108.8 40.1v4.5h-4.7v-4.5z"/>
				<path id="rect960" fill-rule="evenodd" class="s4" d="m127.2 57.4v3h-4v-3z"/>
				<path id="rect962" fill-rule="evenodd" class="s4" d="m108.4 57.4v3h-4v-3z"/>
				<path id="path964" class="s1" d="m129.4 60.8h-8.6v-13.6c0-1.3-0.5-2.6-1.5-3.6-0.9-0.9-2.2-1.4-3.5-1.4-1.3 0-2.6 0.5-3.5 1.4-0.9 1-1.4 2.3-1.4 3.6v13.6h-8.9v-29.2h27.3zm-7.7-0.8h7v-27.6h-25.8v27.6h7.2v-12.8c0-1.5 0.6-3 1.7-4.1 1.1-1.1 2.6-1.7 4.1-1.7 1.5 0 3 0.6 4.1 1.7 1.1 1.1 1.7 2.6 1.7 4.1z"/>
				<g id="g970">
					<path id="rect966" fill-rule="evenodd" class="s0" d="m101 36.1h29.3c0.2 0 0.3 0.1 0.3 0.3v1.7c0 0.1-0.1 0.3-0.3 0.3h-29.3c-0.1 0-0.3-0.2-0.3-0.3v-1.7c0-0.2 0.2-0.3 0.3-0.3z"/>
					<path id="path968" class="s1" d="m130.3 38.8h-29.3q-0.1 0-0.2-0.1-0.2 0-0.3-0.1-0.1-0.1-0.1-0.3-0.1-0.1-0.1-0.2v-1.7q0-0.2 0.1-0.3 0-0.1 0.1-0.2 0.1-0.1 0.3-0.2 0.1 0 0.2 0h29.3q0.2 0 0.3 0 0.1 0.1 0.2 0.2 0.1 0.1 0.2 0.2 0 0.1 0 0.3v1.7q0 0.1 0 0.2-0.1 0.2-0.2 0.3-0.1 0.1-0.2 0.1-0.1 0.1-0.3 0.1zm-29.2-0.8h29.1v-1.5h-29.1z"/>
				</g>
				<g id="g976">
					<path id="rect972" fill-rule="evenodd" class="s0" d="m101.4 46.3h10c0.2 0 0.3 0.2 0.3 0.3v1.7c0 0.2-0.1 0.3-0.3 0.3h-10c-0.1 0-0.3-0.1-0.3-0.3v-1.7c0-0.1 0.2-0.3 0.3-0.3z"/>
					<path id="path974" class="s1" d="m111.4 49h-10q-0.1 0-0.2 0-0.2-0.1-0.3-0.2-0.1-0.1-0.1-0.2-0.1-0.1-0.1-0.3v-1.7q0-0.1 0.1-0.2 0-0.2 0.1-0.3 0.1-0.1 0.3-0.1 0.1-0.1 0.2-0.1h10q0.2 0 0.3 0.1 0.1 0 0.2 0.1 0.1 0.1 0.2 0.3 0 0.1 0 0.2v1.7q0 0.2 0 0.3-0.1 0.1-0.2 0.2-0.1 0.1-0.2 0.2-0.1 0-0.3 0zm-9.9-0.8h9.8v-1.5h-9.8z"/>
				</g>
				<g id="g982">
					<path id="rect978" fill-rule="evenodd" class="s0" d="m120.2 46.4h10c0.1 0 0.3 0.1 0.3 0.3v1.7c0 0.1-0.2 0.3-0.3 0.3h-10c-0.2 0-0.3-0.2-0.3-0.3v-1.7c0-0.2 0.1-0.3 0.3-0.3z"/>
					<path id="path980" class="s1" d="m130.2 49.1h-10q-0.2 0-0.3-0.1-0.1 0-0.2-0.1-0.1-0.1-0.2-0.3 0-0.1 0-0.2v-1.7q0-0.2 0-0.3 0.1-0.1 0.2-0.2 0.1-0.1 0.2-0.2 0.1 0 0.3 0h10q0.1 0 0.2 0 0.1 0.1 0.2 0.2 0.1 0.1 0.2 0.2 0 0.1 0.1 0.3v1.7q-0.1 0.1-0.1 0.2-0.1 0.2-0.2 0.3-0.1 0.1-0.2 0.1-0.1 0.1-0.2 0.1zm-9.9-0.8h9.8v-1.5h-9.8z"/>
				</g>
				<path id="path984" class="s1" d="m129.9 34.1h-28.5q-0.2 0-0.3-0.1-0.1-0.1-0.1-0.3 0-0.1 0.1-0.2 0.1-0.2 0.3-0.2h28.5q0.2 0 0.3 0.2 0.1 0.1 0.1 0.2 0 0.2-0.1 0.3-0.1 0.1-0.3 0.1z"/>
			</g>
			<g id="g1044">
				<path id="polygon988" fill-rule="evenodd" class="s0" d="m71.8 7.5l1.1 3.1h3.6 0.4l1.1-2.8-0.7-1.6-1.1-0.9-1.4-0.4-1.5 0.8z"/>
				<path id="path990" class="s1" d="m77.2 11h-4.5l-1.2-3.1v-0.1c0-1.4 1.9-3.3 3.4-3.3 1.5 0 3.5 1.9 3.5 3.3v0.1zm-4-0.8h3.5l1-2.4c-0.1-1-1.7-2.5-2.7-2.5-1.1 0-2.6 1.5-2.7 2.5z"/>
				<path id="path992" class="s1" d="m74.9 3.8q0 0-0.1 0-0.1-0.1-0.1-0.1-0.1-0.1-0.1-0.1-0.1-0.1-0.1-0.2v-2.7q0-0.2 0.2-0.3 0.1-0.1 0.2-0.1 0.2 0 0.3 0.1 0.1 0.1 0.1 0.3v2.7q0 0.1 0 0.2 0 0-0.1 0.1 0 0-0.1 0.1-0.1 0-0.2 0z"/>
				<g id="g998">
					<path id="path994" class="s0" d="m93.3 60.4c0 0-17.2-22.8-17.2-49.8h-2.4c0 27-17.1 49.8-17.1 49.8h10.4v-2c-0.1-2.1 0.7-4.2 2.2-5.7 1.5-1.6 3.6-2.4 5.7-2.4 2.1 0 4.1 0.8 5.6 2.4 1.5 1.5 2.3 3.6 2.3 5.7v2zm-22.2-15.1l3.5-13.4q0-0.2 0.1-0.3 0.2-0.1 0.3-0.1 0.1 0 0.2 0.1 0.2 0.1 0.2 0.3l3.5 13.4z"/>
					<path id="path996" class="s1" d="m94 60.8h-11.6v-2.4c0-2-0.7-4-2.1-5.5-1.5-1.4-3.4-2.2-5.4-2.2-2 0-4 0.8-5.4 2.2-1.4 1.5-2.2 3.5-2.1 5.5v2.4h-11.6l0.5-0.6c0.1-0.1 4.3-5.8 8.5-14.8 3.9-8.2 8.5-20.9 8.5-34.8v-0.4h3.2v0.4c0 13.9 4.7 26.6 8.5 34.8 4.3 9 8.5 14.7 8.6 14.8zm-10.9-0.8h9.3q-1.2-1.7-2.3-3.4-1-1.8-2.1-3.6-1-1.7-1.9-3.6-1-1.8-1.8-3.6c-3.9-8.3-8.5-21-8.6-34.9h-1.6c-0.1 13.9-4.8 26.6-8.6 34.9q-0.9 1.8-1.8 3.6-1 1.9-2 3.6-1 1.8-2.1 3.6-1.1 1.7-2.3 3.4h9.2v-1.6c-0.1-2.3 0.8-4.5 2.4-6.1 1.5-1.6 3.7-2.5 5.9-2.5 2.2 0 4.4 0.9 5.9 2.5 1.6 1.6 2.5 3.8 2.4 6.1zm-3.9-14.4h-8.7l3.6-13.9q0.1-0.3 0.3-0.5 0.2-0.1 0.5-0.1 0.2 0 0.4 0.1 0.3 0.2 0.3 0.5zm-7.7-0.8h6.7l-3.3-13z"/>
				</g>
				<g id="g1004">
					<path id="rect1000" fill-rule="evenodd" class="s0" d="m63.7 45.3h22.5c0.2 0 0.3 0.1 0.3 0.3v1.7c0 0.1-0.1 0.3-0.3 0.3h-22.5c-0.2 0-0.3-0.2-0.3-0.3v-1.7c0-0.2 0.1-0.3 0.3-0.3z"/>
					<path id="path1002" class="s1" d="m86.2 48h-22.5q-0.2 0-0.3-0.1-0.1 0-0.2-0.1-0.1-0.1-0.2-0.3 0-0.1 0-0.2v-1.7q0-0.2 0-0.3 0.1-0.1 0.2-0.2 0.1-0.1 0.2-0.2 0.1 0 0.3 0h22.5q0.1 0 0.3 0 0.1 0.1 0.2 0.2 0.1 0.1 0.1 0.2 0.1 0.1 0.1 0.3v1.7q0 0.1-0.1 0.2 0 0.2-0.1 0.3-0.1 0.1-0.2 0.1-0.2 0.1-0.3 0.1zm-22.4-0.8h22.3v-1.5h-22.3z"/>
				</g>
				<g id="g1010">
					<path id="rect1006" fill-rule="evenodd" class="s0" d="m68.3 33.2h13.3c0.1 0 0.3 0.1 0.3 0.3v1.7c0 0.2-0.2 0.3-0.3 0.3h-13.3c-0.2 0-0.3-0.1-0.3-0.3v-1.7c0-0.2 0.1-0.3 0.3-0.3z"/>
					<path id="path1008" class="s1" d="m81.6 35.9h-13.3q-0.1 0-0.3 0-0.1-0.1-0.2-0.2-0.1-0.1-0.1-0.2-0.1-0.2-0.1-0.3v-1.7q0-0.1 0.1-0.3 0-0.1 0.1-0.2 0.1-0.1 0.2-0.1 0.2-0.1 0.3-0.1h13.3q0.1 0 0.2 0.1 0.2 0 0.3 0.1 0.1 0.1 0.1 0.2 0.1 0.2 0.1 0.3v1.7q0 0.1-0.1 0.3 0 0.1-0.1 0.2-0.1 0.1-0.3 0.2-0.1 0-0.2 0zm-13.2-0.8h13.1v-1.5h-13.1z"/>
				</g>
				<path id="path1012" class="s1" d="m77.6 20.8h-5.4q-0.1 0-0.2-0.1-0.1-0.1-0.1-0.3 0-0.1 0.1-0.3 0.1-0.1 0.2-0.1h5.4q0.2 0 0.3 0.1 0.1 0.2 0.1 0.3 0 0.2-0.1 0.3-0.1 0.1-0.3 0.1z"/>
				<path id="path1014" class="s1" d="m87 50.4h-24.1q-0.1 0-0.1 0 0 0 0-0.1 0 0-0.1 0 0 0 0 0 0-0.1 0-0.1 0.1 0 0.1 0 0-0.1 0-0.1 0 0 0.1 0h24.1q0 0 0.1 0 0 0 0 0.1 0 0 0 0 0 0 0.1 0.1-0.1 0-0.1 0 0 0 0 0 0 0.1 0 0.1-0.1 0-0.1 0z"/>
				<path id="path1016" class="s1" d="m71.9 42.3h-5.1q-0.1 0-0.1 0 0 0 0-0.1-0.1 0-0.1 0 0 0 0-0.1 0 0 0 0 0 0 0.1-0.1 0 0 0 0 0 0 0.1 0h5.1q0 0 0 0 0 0 0.1 0 0 0.1 0 0.1 0 0 0 0 0 0.1 0 0.1 0 0 0 0-0.1 0.1-0.1 0.1 0 0 0 0z"/>
				<path id="path1018" class="s1" d="m83.1 42.3h-5.1q0 0 0 0-0.1 0-0.1-0.1 0 0 0 0 0 0 0-0.1 0 0 0 0 0 0 0-0.1 0 0 0.1 0 0 0 0 0h5.1q0 0 0.1 0 0 0 0 0 0 0.1 0 0.1 0 0 0 0 0 0.1 0 0.1 0 0 0 0 0 0.1 0 0.1-0.1 0-0.1 0z"/>
				<path id="path1020" class="s1" d="m72.7 39.1h-4.7q0 0 0 0-0.1 0-0.1 0 0-0.1 0-0.1 0 0 0 0 0-0.1 0-0.1 0 0 0 0 0 0 0.1-0.1 0 0 0 0h4.7q0 0 0 0 0.1 0.1 0.1 0.1 0 0 0 0 0 0 0 0.1 0 0 0 0 0 0 0 0.1 0 0-0.1 0 0 0 0 0z"/>
				<path id="path1022" class="s1" d="m81.8 39.1h-4.6q-0.1 0-0.1 0 0 0 0 0 0-0.1 0-0.1-0.1 0-0.1 0 0-0.1 0.1-0.1 0 0 0 0 0 0 0-0.1 0 0 0.1 0h4.6q0.1 0 0.1 0 0 0.1 0 0.1 0.1 0 0.1 0 0 0 0 0.1 0 0 0 0 0 0-0.1 0.1 0 0 0 0 0 0-0.1 0z"/>
				<path id="path1024" class="s1" d="m78.9 30.1h-7.9q-0.1 0-0.1 0-0.1 0-0.1-0.1 0 0 0.1-0.1 0 0 0.1 0h7.9q0 0 0.1 0 0 0.1 0 0.1 0 0.1 0 0.1-0.1 0-0.1 0z"/>
				<path id="path1026" class="s1" d="m78.1 27h-6.3q-0.1 0-0.1 0 0 0 0-0.1 0 0-0.1 0 0 0 0-0.1 0 0 0 0 0.1 0 0.1 0 0-0.1 0-0.1 0 0 0.1 0h6.3q0 0 0 0 0.1 0 0.1 0.1 0 0 0 0 0 0 0 0 0 0.1 0 0.1 0 0 0 0 0 0.1-0.1 0.1 0 0 0 0z"/>
				<path id="path1028" class="s1" d="m77.4 23.8h-4.9q0 0-0.1 0 0-0.1 0-0.1 0 0 0 0-0.1 0-0.1-0.1 0 0 0.1 0 0 0 0-0.1 0 0 0 0 0.1 0 0.1 0h4.9q0.1 0 0.1 0 0 0 0 0 0 0.1 0.1 0.1 0 0 0 0 0 0.1 0 0.1-0.1 0-0.1 0 0 0 0 0.1 0 0-0.1 0z"/>
				<path id="path1030" class="s1" d="m76.5 17.3h-3.1q-0.1 0-0.1 0 0 0-0.1-0.1 0.1 0 0.1-0.1 0 0 0.1 0h3.1q0 0 0.1 0 0 0.1 0 0.1 0 0.1 0 0.1-0.1 0-0.1 0z"/>
				<path id="path1032" class="s1" d="m76.3 14.1h-2.7q0 0 0 0-0.1 0-0.1 0 0 0 0 0 0-0.1 0-0.1 0 0 0 0 0-0.1 0-0.1 0 0 0.1 0 0 0 0 0h2.7q0 0 0 0 0 0 0 0 0.1 0 0.1 0.1 0 0 0 0 0 0 0 0.1 0 0-0.1 0 0 0 0 0 0 0 0 0z"/>
				<path id="path1034" class="s1" d="m78 8h-6.1q-0.1 0-0.1 0-0.1-0.1-0.1-0.1 0-0.1 0.1-0.1 0-0.1 0.1-0.1h6.1q0.1 0 0.1 0.1 0.1 0 0.1 0.1 0 0-0.1 0.1 0 0-0.1 0z"/>
				<path id="path1036" class="s1" d="m68.3 54h-7.4q-0.1 0-0.1 0-0.1-0.1-0.1-0.1 0-0.1 0.1-0.1 0-0.1 0.1-0.1h7.4q0.1 0 0.1 0.1 0.1 0 0.1 0.1 0 0-0.1 0.1 0 0-0.1 0z"/>
				<path id="path1038" class="s1" d="m89 54h-7.6q-0.1 0-0.1 0 0-0.1 0-0.1 0-0.1 0-0.1 0-0.1 0.1-0.1h7.6q0.1 0 0.1 0.1 0 0 0 0.1 0 0 0 0.1 0 0-0.1 0z"/>
				<path id="path1040" class="s1" d="m67 57.6h-8.4q0 0-0.1 0 0 0 0 0 0 0 0-0.1 0 0 0 0 0 0 0-0.1 0 0 0 0 0 0 0 0 0.1 0 0.1 0h8.4q0 0 0.1 0 0 0 0 0 0 0 0 0 0 0.1 0 0.1 0 0 0 0 0 0.1 0 0.1 0 0 0 0-0.1 0-0.1 0z"/>
				<path id="path1042" class="s1" d="m91.2 57.6h-8.4q-0.1 0-0.1 0 0 0 0 0-0.1 0-0.1-0.1 0 0 0 0 0 0 0-0.1 0 0 0.1 0 0 0 0 0 0 0 0.1 0h8.4q0.1 0 0.1 0 0 0 0 0 0.1 0 0.1 0 0 0.1 0 0.1 0 0 0 0 0 0.1-0.1 0.1 0 0 0 0 0 0-0.1 0z"/>
			</g>
			<g id="g1066">
				<g id="g1050">
					<path id="circle1046" fill-rule="evenodd" class="s0" d="m141.2 56.4c-4.1 0-7.3-3.3-7.3-7.3 0-4.1 3.2-7.4 7.3-7.4 4 0 7.3 3.3 7.3 7.4 0 4-3.3 7.3-7.3 7.3z"/>
					<path id="path1048" class="s1" d="m141.2 56.8c-3.2 0-6-1.9-7.2-4.8-1.2-2.9-0.5-6.2 1.7-8.4 2.2-2.3 5.5-2.9 8.4-1.7 2.9 1.2 4.8 4 4.8 7.2q0 1.5-0.6 2.9-0.6 1.5-1.7 2.5-1.1 1.1-2.5 1.7-1.4 0.6-2.9 0.6zm0-14.7c-2.8 0-5.4 1.7-6.4 4.3-1.1 2.6-0.5 5.6 1.5 7.6 2 2 4.9 2.6 7.5 1.5 2.6-1.1 4.3-3.6 4.3-6.4q0-1.4-0.5-2.7-0.6-1.3-1.5-2.3-1-0.9-2.3-1.5-1.3-0.5-2.6-0.5z"/>
				</g>
				<path id="path1052" class="s1" d="m141.2 60.6q-0.1 0-0.2 0-0.1 0-0.1-0.1-0.1 0-0.1-0.1 0-0.1 0-0.2v-12.8q0-0.2 0.1-0.3 0.1-0.1 0.3-0.1 0.1 0 0.2 0.1 0.2 0.1 0.2 0.3v12.8q0 0.1-0.1 0.2 0 0.1-0.1 0.1 0 0.1-0.1 0.1-0.1 0-0.1 0z"/>
				<g id="g1058">
					<path id="line1054" fill-rule="evenodd" class="s0" d="m141.2 50.7l-2-2.1"/>
					<path id="path1056" class="s1" d="m141.2 51.1q-0.1 0-0.1 0 0 0-0.1-0.1 0 0-0.1 0 0 0 0 0l-2-2.1q-0.1-0.1-0.1-0.3 0-0.1 0.1-0.2 0.1-0.2 0.3-0.2 0.1 0 0.2 0.2l2 2q0.1 0 0.1 0.1 0.1 0.1 0.1 0.2 0 0-0.1 0.1 0 0.1-0.1 0.2 0 0 0 0 0 0-0.1 0 0 0.1-0.1 0.1 0 0 0 0z"/>
				</g>
				<g id="g1064">
					<path id="line1060" fill-rule="evenodd" class="s0" d="m141.2 53.6l3-3.1"/>
					<path id="path1062" class="s1" d="m141.2 54q-0.2 0-0.3-0.1-0.1 0-0.1-0.1 0-0.1 0-0.3 0-0.1 0.1-0.2l3-3q0.2-0.2 0.3-0.2 0.2 0 0.3 0.2 0.1 0.1 0.1 0.2 0 0.2-0.1 0.3l-3.1 3.1q0 0 0 0 0 0.1-0.1 0.1 0 0-0.1 0 0 0 0 0z"/>
				</g>
			</g>
			<g id="g1080">
				<path id="path1068" class="s0" d="m7.6 60.6c-1-2.2-0.8-4.9 0.6-7 1.3-2.1 3.6-3.4 6.1-3.4 2.5 0 4.8 1.3 6.1 3.4 1.4 2.1 1.6 4.8 0.6 7z"/>
				<g id="g1074">
					<path id="line1070" fill-rule="evenodd" class="s0" d="m14.3 59.2l2-2"/>
					<path id="path1072" class="s1" d="m14.3 59.6q0 0 0.1 0 0 0 0 0 0.1 0 0.1 0 0-0.1 0.1-0.1l2-2q0.1-0.1 0.1-0.3 0-0.2-0.1-0.3-0.1-0.1-0.3-0.1-0.2 0-0.3 0.1l-2 2q-0.1 0.1-0.1 0.3 0 0.1 0 0.2 0.1 0.1 0.2 0.2 0.1 0 0.2 0z"/>
				</g>
				<path id="path1076" class="s1" d="m13.9 60.6v-4.7q0-0.1 0.1-0.2 0.1-0.2 0.3-0.2 0.2 0 0.3 0.2 0.1 0.1 0.1 0.2v4.7z"/>
				<path id="path1078" class="s1" d="m20.5 60.6c1.1-2.1 0.9-4.7-0.4-6.7-1.2-2-3.4-3.3-5.8-3.3-2.4 0-4.6 1.3-5.9 3.3-1.2 2-1.4 4.6-0.4 6.7h-0.8c-1-2.4-0.8-5.1 0.7-7.3 1.4-2.1 3.8-3.4 6.4-3.4 2.6 0 5 1.3 6.4 3.4 1.4 2.2 1.7 4.9 0.7 7.3z"/>
			</g>
			<path id="path1082" class="s1" d="m149.4 60.8h-149q-0.2 0-0.3-0.1-0.1-0.1-0.1-0.3 0-0.1 0.1-0.3 0.1-0.1 0.3-0.1h149q0.2 0 0.3 0.1 0.1 0.2 0.1 0.3 0 0.2-0.1 0.3-0.1 0.1-0.3 0.1z"/>
			<path id="polygon1084" fill-rule="evenodd" class="s3" d="m37.7 60.4h-12.3l6.2-8.1z"/>
			<path id="path1086" class="s1" d="m37.7 60.8h-12.3q-0.1 0-0.2 0-0.1-0.1-0.1-0.2-0.1-0.1-0.1-0.2 0.1-0.1 0.1-0.2l6.1-8.2q0.1 0 0.2-0.1 0.1 0 0.2 0 0 0 0.1 0 0.1 0.1 0.2 0.1l6.1 8.2q0.1 0.1 0.1 0.2 0 0.1-0.1 0.2 0 0.1-0.1 0.2-0.1 0-0.2 0zm-11.5-0.8h10.7l-5.3-7.1z"/>
			<path id="path1088" class="s1" d="m34 60.6q0 0-0.1 0 0-0.1 0-0.1 0 0 0 0 0 0 0 0l-2.5-8.2q0 0 0 0 0-0.1 0-0.1 0.1 0 0.1 0 0 0 0 0 0-0.1 0.1-0.1 0 0 0 0.1 0 0 0.1 0 0 0 0 0l2.4 8.2q0 0 0 0 0 0.1 0 0.1 0 0 0 0-0.1 0-0.1 0.1z"/>
			<path id="path1090" class="s5" d="m85.6 43.7c0.8 0 1.9 0.1 2.6 0.4q-0.3-0.3-0.7-0.5-0.4-0.3-0.9-0.5-0.4-0.1-0.9-0.2-0.5-0.1-0.9-0.1c-2.3 0-4.5 1.7-5.3 3.7 0.7-2.7 1.7-4.3 4.2-5.7 2.6-1.3 5.7-0.4 7.6 2 1.2 1.4 1.7 3.5 1.5 5.2q2.4 0.3 4.9-1.9 0.4-0.4 0.8-1 0.5-0.5 0.8-1 0.4-0.6 0.7-1.2 0.3-0.5 0.5-1.2 0.2-0.3 0.4-0.6 0.3-0.3 0.5-0.5 0.3-0.2 0.7-0.4 0.3-0.2 0.6-0.3c0-0.6-0.5-1.3-1.4-1.7 0.5-0.1 1.4-0.1 1.8 0.4 0.2-0.3 0.1-1.1 0.1-1.5 0.5 0.2 1 1.1 1.1 1.6q0.1-0.1 0.2-0.2 0.1-0.1 0.1-0.3 0.1-0.1 0.2-0.2 0-0.2 0.1-0.3 0.1 0.2 0.2 0.5 0.1 0.3 0.1 0.6 0 0.2 0 0.5 0 0.3-0.1 0.6 0.2-0.1 0.4-0.2 0.2-0.1 0.4-0.1 0.3 0 0.5-0.1 0.2 0 0.4 0-0.2 0.2-0.4 0.3-0.2 0.1-0.4 0.3-0.2 0.2-0.4 0.4-0.2 0.1-0.3 0.4 0.2-0.1 0.4-0.1 0.3 0 0.5 0.1 0.2 0 0.4 0.1 0.2 0.1 0.4 0.2-0.3 0-0.5 0-0.2 0.1-0.5 0.1-0.2 0.1-0.4 0.2-0.3 0.1-0.5 0.2 0 0 0 0.1 0 0 0 0 0 0 0 0 0 0 0 0.1c0.5 0.4 0.6 0.9 0.2 1.3-0.4 0.3-1.1 0.2-1.3-0.6-0.7 0.4-1 1.1-1.3 2.1-0.2 1.1 0 2.4-0.1 3.5-0.3 2.2-1.8 4.4-4.1 6.2-0.6 0.3-1.7 6-2.5 6-0.9 0-1.4-5.1-2.4-5.2-2.5-0.8-4.3-2.2-4.4-5q0-0.1 0-0.2 0-0.2 0.1-0.3 0-0.2 0-0.3 0-0.2 0.1-0.3c-0.6-0.7-1.3-1.2-2.1-1.4-0.8-0.3-1.7-0.2-2.5 0.1-0.8 0.2-1.5 0.8-2 1.5-0.4 0.7-0.7 1.6-0.6 2.4q-0.2-0.7-0.1-1.5 0.1-0.8 0.5-1.4 0.3-0.7 0.9-1.2 0.5-0.6 1.2-0.9 0.4-0.2 0.8-0.3 0.4-0.1 0.8-0.1 0.5-0.1 0.9 0 0.4 0 0.8 0.1c-0.9-0.8-1.7-1.1-3-1.1q-0.8 0-1.5 0.2-0.7 0.2-1.3 0.6-0.6 0.4-1.1 1-0.4 0.5-0.7 1.2c0.6-2.4 2.6-4.6 5.2-4.6z"/>
			<path id="path1108" class="s6" d="m99.3 44.1c0 0-1.1 8.4-5 7.8-2.2-0.3-1.8-4-1.8-4"/>
		</g>
	</g>
</svg>