<?xml version="1.0" encoding="UTF-8" standalone="no"?>
<svg
   width="569.33002"
   height="228.34"
   viewBox="0 0 569.33 228.33999"
   version="1.1"
   id="svg1112"
   sodipodi:docname="KCD_LOGO_2023-adapté.svg"
   inkscape:version="1.1.1 (c3084ef, 2021-09-22)"
   xmlns:inkscape="http://www.inkscape.org/namespaces/inkscape"
   xmlns:sodipodi="http://sodipodi.sourceforge.net/DTD/sodipodi-0.dtd"
   xmlns="http://www.w3.org/2000/svg"
   xmlns:svg="http://www.w3.org/2000/svg">
  <sodipodi:namedview
     id="namedview1114"
     pagecolor="#ffffff"
     bordercolor="#666666"
     borderopacity="1.0"
     inkscape:pageshadow="2"
     inkscape:pageopacity="0.0"
     inkscape:pagecheckerboard="0"
     showgrid="false"
     inkscape:zoom="1.0566708"
     inkscape:cx="212.93293"
     inkscape:cy="109.30557"
     inkscape:window-width="1323"
     inkscape:window-height="767"
     inkscape:window-x="0"
     inkscape:window-y="615"
     inkscape:window-maximized="0"
     inkscape:current-layer="Calque_3" />
  <defs
     id="defs826">
    <style
       id="style824">
      .cls-1, .cls-4, .cls-6 {
        fill: #fff;
      }

      .cls-2 {
        fill: #466bb0;
      }

      .cls-3 {
        fill: #cfdbe8;
      }

      .cls-4 {
        opacity: 0.75;
      }

      .cls-5, .cls-8 {
        fill: none;
      }

      .cls-5, .cls-6, .cls-8 {
        stroke: #466bb0;
        stroke-linejoin: round;
      }

      .cls-6 {
        stroke-width: 3px;
      }

      .cls-7 {
        fill: #27d6f2;
      }

      .cls-8 {
        stroke-linecap: round;
      }
    </style>
  </defs>
  <g
     id="Calque_2"
     data-name="Calque 2"
     transform="translate(0,-106.91)">
    <g
       id="Calque_3"
       data-name="Calque 3">
      <g
         id="g832">
        <path
           class="cls-1"
           d="m 242.76,204.4 a 5.87,5.87 0 0 0 0.93,-3.18 5.93,5.93 0 0 0 -5.94,-5.93 6.64,6.64 0 0 0 -1.18,0.11 16.36,16.36 0 0 0 -28.68,-14.31 7.11,7.11 0 0 0 -11.84,5.32 7,7 0 0 0 0.49,2.55 h -0.49 a 9.33,9.33 0 0 0 -7,15.46 z"
           id="path828" />
        <path
           class="cls-2"
           d="M 242.76,205.68 H 189 a 1.26,1.26 0 0 1 -1,-0.44 10.6,10.6 0 0 1 6.83,-17.52 8.17,8.17 0 0 1 -0.1,-1.31 8.38,8.38 0 0 1 12.91,-7.07 17.64,17.64 0 0 1 30.54,14.66 7.2,7.2 0 0 1 5.66,11.06 1.28,1.28 0 0 1 -1.08,0.62 z m -53.14,-2.56 H 242 a 4.61,4.61 0 0 0 0.41,-1.9 4.65,4.65 0 0 0 -4.65,-4.65 4.73,4.73 0 0 0 -0.93,0.09 1.32,1.32 0 0 1 -1.19,-0.38 1.26,1.26 0 0 1 -0.3,-1.2 15.07,15.07 0 0 0 -14.6,-19 15,15 0 0 0 -11.85,5.76 1.27,1.27 0 0 1 -1.89,0.16 5.82,5.82 0 0 0 -9.31,6.46 1.28,1.28 0 0 1 -1.26,1.74 h -0.42 a 8,8 0 0 0 -6.43,12.9 z"
           id="path830" />
      </g>
      <polygon
         class="cls-1"
         points="220.96,243.87 220.95,325.49 215.2,333.73 176.46,333.75 181.43,237.46 177.03,239.79 166.33,246.93 165.58,192.45 176.34,185.31 177.03,169.7 187.74,178.26 187.82,196.66 188.34,223.56 199.91,223.63 "
         id="polygon836" />
      <path
         class="cls-3"
         d="m 220.4,332.25 h 317.05 c 0,-38.36 -62.72,-136.08 -195.32,-83.5 -66.2,26.25 -97.48,26.66 -121.73,21.59 z"
         id="path838" />
      <path
         class="cls-3"
         d="m 154,258.14 c -4.21,0.13 -8.7,0.45 -13.52,1 -76.57,8.92 -96.53,73.1 -96.53,73.1 H 154 Z"
         id="path840" />
      <g
         id="g846">
        <path
           class="cls-1"
           d="m 108.17,269.51 a 8.73,8.73 0 1 0 -15,-6.31 6.36,6.36 0 0 0 -2.44,-0.48 6.56,6.56 0 0 0 -6.55,6.55 1.94,1.94 0 0 0 0,0.24 z"
           id="path842" />
        <path
           class="cls-2"
           d="M 108.17,270.8 H 84.25 A 1.28,1.28 0 0 1 83,269.56 c 0,-0.13 0,-0.21 0,-0.29 a 7.85,7.85 0 0 1 7.84,-7.84 8.2,8.2 0 0 1 1.32,0.11 10,10 0 0 1 19.84,1.84 10,10 0 0 1 -2.89,7 1.3,1.3 0 0 1 -0.94,0.42 z m -22.54,-2.58 h 22 a 7.44,7.44 0 0 0 -5.63,-12.28 7.49,7.49 0 0 0 -7.44,7.28 1.27,1.27 0 0 1 -0.58,1 1.29,1.29 0 0 1 -1.19,0.13 5.11,5.11 0 0 0 -2,-0.39 5.27,5.27 0 0 0 -5.16,4.26 z"
           id="path844" />
      </g>
      <g
         id="g852">
        <polyline
           class="cls-1"
           points="153.98 333.75 153.98 255.03 182.2 236.42 182.2 333.75"
           id="polyline848" />
        <path
           class="cls-2"
           d="m 182.2,335.25 a 1.5,1.5 0 0 1 -1.5,-1.5 v -94.54 l -25.22,16.62 v 77.92 a 1.5,1.5 0 0 1 -3,0 V 255 a 1.51,1.51 0 0 1 0.67,-1.26 l 28.22,-18.6 a 1.5,1.5 0 0 1 2.33,1.25 v 97.33 a 1.5,1.5 0 0 1 -1.5,1.53 z"
           id="path850" />
      </g>
      <g
         id="g858">
        <line
           class="cls-1"
           x1="197.89999"
           y1="242.37"
           x2="197.89999"
           y2="333.75"
           id="line854" />
        <path
           class="cls-2"
           d="m 197.9,335.25 a 1.5,1.5 0 0 1 -1.5,-1.5 v -91.38 a 1.5,1.5 0 0 1 3,0 v 91.38 a 1.5,1.5 0 0 1 -1.5,1.5 z"
           id="path856" />
      </g>
      <path
         class="cls-2"
         d="m 221,335.25 a 1.5,1.5 0 0 1 -1.5,-1.5 v -90.7 L 199,225.26 h -21 v 15 a 1.5,1.5 0 0 1 -3,0 v -16.5 a 1.5,1.5 0 0 1 1.5,-1.5 h 23 a 1.48,1.48 0 0 1 1,0.37 l 21.45,18.61 a 1.48,1.48 0 0 1 0.52,1.13 v 91.38 a 1.5,1.5 0 0 1 -1.47,1.5 z"
         id="path860" />
      <path
         class="cls-2"
         d="m 221,243.87 h -23.1 a 1.48,1.48 0 0 1 -1,-0.37 l -21.45,-18.6 a 1.512688,1.512688 0 0 1 2,-2.27 l 21,18.24 H 221 a 1.5,1.5 0 1 1 0,3 z"
         id="path862" />
      <path
         class="cls-2"
         d="m 165.77,248.75 a 1.5,1.5 0 0 1 -1.5,-1.5 v -54.73 a 1.52,1.52 0 0 1 0.71,-1.28 l 22.52,-14 a 1.48,1.48 0 0 1 1.52,0 1.51,1.51 0 0 1 0.77,1.31 v 45.29 a 1.5,1.5 0 0 1 -3,0 v -42.67 l -19.52,12.18 v 53.9 a 1.5,1.5 0 0 1 -1.5,1.5 z"
         id="path864" />
      <polygon
         class="cls-4"
         points="126.99,333.75 237.41,333.75 182.2,260.8 "
         id="polygon866" />
      <path
         class="cls-2"
         d="M 237.41,335.25 H 127 a 1.51,1.51 0 0 1 -1.2,-2.41 L 181,259.89 a 1.55,1.55 0 0 1 2.39,0 l 55.21,72.95 a 1.5,1.5 0 0 1 -1.19,2.41 z m -107.41,-3 h 104.39 l -52.19,-69 z"
         id="path868" />
      <path
         class="cls-2"
         d="m 160.28,334.25 h -0.14 a 0.52,0.52 0 0 1 -0.34,-0.63 l 21.92,-73 a 0.52060061,0.52060061 0 0 1 1,0.29 l -21.92,72.95 a 0.49,0.49 0 0 1 -0.52,0.39 z"
         id="path870" />
      <g
         id="g876">
        <path
           class="cls-1"
           d="M 405.41,205.68 A 16.2,16.2 0 0 0 392.5,177 a 23,23 0 0 0 -44.13,9.18 c 0,0.65 0,1.29 0.09,1.93 a 10.92,10.92 0 0 0 -1.15,-0.07 10.3,10.3 0 0 0 -7.25,17.63 z"
           id="path872" />
        <path
           class="cls-2"
           d="m 405.41,207.09 h -65.35 a 1.41,1.41 0 0 1 -1,-0.41 11.71,11.71 0 0 1 7.89,-20 v -0.45 a 24.43,24.43 0 0 1 46.38,-10.73 16.82,16.82 0 0 1 2,-0.12 17.63,17.63 0 0 1 11,31.44 1.41,1.41 0 0 1 -0.92,0.27 z m -64.74,-2.83 h 64.23 a 14.8,14.8 0 0 0 -9.58,-26.09 14.93,14.93 0 0 0 -2.58,0.24 1.42,1.42 0 0 1 -1.54,-0.83 21.6,21.6 0 0 0 -41.41,8.61 c 0,0.55 0,1.14 0.08,1.81 a 1.41,1.41 0 0 1 -0.43,1.13 1.38,1.38 0 0 1 -1.14,0.39 8.74,8.74 0 0 0 -1,-0.05 8.89,8.89 0 0 0 -8.89,8.88 8.8,8.8 0 0 0 2.26,5.91 z"
           id="path874" />
      </g>
      <g
         id="g882">
        <path
           class="cls-1"
           d="m 517,216 a 9.64,9.64 0 0 0 -19,0 z"
           id="path878" />
        <path
           class="cls-2"
           d="m 517,217.19 h -19 a 1.17,1.17 0 0 1 -1.17,-1.35 10.82,10.82 0 0 1 21.4,0 1.17,1.17 0 0 1 -1.17,1.35 z m -17.57,-2.36 h 16.08 a 8.45,8.45 0 0 0 -16.08,0 z"
           id="path880" />
      </g>
      <path
         class="cls-2"
         d="m 176.46,187.35 a 1.5,1.5 0 0 1 -1.5,-1.5 v -17.28 a 1.47,1.47 0 0 1 0.86,-1.35 1.5,1.5 0 0 1 1.6,0.2 l 11.83,9.9 a 1.5,1.5 0 1 1 -1.92,2.3 L 178,171.78 v 14.07 a 1.5,1.5 0 0 1 -1.54,1.5 z"
         id="path884" />
      <g
         id="g986">
        <path
           class="cls-1"
           d="m 389,226.69 v 107 h 30.7 v -50.04 a 20.38,20.38 0 0 1 40.76,0 v 50.08 h 29.61 v -107 z"
           id="path954" />
        <rect
           class="cls-5"
           x="466.20999"
           y="256.98001"
           width="17.709999"
           height="17.190001"
           id="rect956" />
        <rect
           class="cls-5"
           x="395.57999"
           y="256.98001"
           width="17.709999"
           height="17.190001"
           id="rect958" />
        <rect
           class="cls-5"
           x="468.06"
           y="322.29001"
           width="15.13"
           height="11.44"
           id="rect960" />
        <rect
           class="cls-5"
           x="396.87"
           y="322.29001"
           width="15.13"
           height="11.44"
           id="rect962" />
        <path
           class="cls-2"
           d="M 491.57,335.25 H 459 V 283.8 a 18.88,18.88 0 1 0 -37.76,0 v 51.45 H 387.53 V 225.19 h 104 z m -29.61,-3 h 26.61 V 228.19 h -98 V 332.25 H 418.2 V 283.8 a 21.88,21.88 0 1 1 43.76,0 z"
           id="path964" />
        <g
           id="g970">
          <rect
             class="cls-1"
             x="382.76001"
             y="241.92"
             width="113.58"
             height="8.6899996"
             rx="1.13"
             id="rect966" />
          <path
             class="cls-2"
             d="M 495.2,252.12 H 383.89 a 2.63,2.63 0 0 1 -2.63,-2.63 v -6.43 a 2.64,2.64 0 0 1 2.63,-2.64 H 495.2 a 2.65,2.65 0 0 1 2.64,2.64 v 6.43 a 2.64,2.64 0 0 1 -2.64,2.63 z m -110.94,-3 h 110.58 v -5.7 H 384.26 Z"
             id="path968" />
        </g>
        <g
           id="g976">
          <rect
             class="cls-1"
             x="384.32999"
             y="280.56"
             width="40.209999"
             height="8.6899996"
             rx="1.13"
             id="rect972" />
          <path
             class="cls-2"
             d="m 423.41,290.76 h -38 a 2.64,2.64 0 0 1 -2.63,-2.64 v -6.43 a 2.63,2.63 0 0 1 2.63,-2.63 h 38 a 2.63,2.63 0 0 1 2.63,2.63 v 6.43 a 2.64,2.64 0 0 1 -2.63,2.64 z m -37.58,-3 H 423 v -5.7 h -37.17 z"
             id="path974" />
        </g>
        <g
           id="g982">
          <rect
             class="cls-1"
             x="455.51001"
             y="280.73001"
             width="40.209999"
             height="8.6899996"
             rx="1.13"
             id="rect978" />
          <path
             class="cls-2"
             d="m 494.59,290.92 h -37.94 a 2.64,2.64 0 0 1 -2.64,-2.63 v -6.43 a 2.64,2.64 0 0 1 2.64,-2.63 h 37.94 a 2.64,2.64 0 0 1 2.64,2.63 v 6.43 a 2.64,2.64 0 0 1 -2.64,2.63 z m -37.58,-3 h 37.22 v -5.69 H 457 Z"
             id="path980" />
        </g>
        <path
           class="cls-2"
           d="M 493.77,234.62 H 385.32 a 1.5,1.5 0 0 1 0,-3 h 108.45 a 1.5,1.5 0 0 1 0,3 z"
           id="path984" />
      </g>
      <g
         id="g1044">
        <polygon
           class="cls-1"
           points="273.03,134.19 276.93,145.83 290.85,145.85 292.29,145.85 296.5,135.46 293.56,129.37 289.4,125.96 284.06,124.25 278.35,127.22 "
           id="polygon988" />
        <path
           class="cls-2"
           d="M 293.35,147.33 H 276.2 l -4.64,-11.58 v -0.29 c 0,-5.37 7.53,-12.5 13.22,-12.5 5.69,0 13.22,7.13 13.22,12.5 v 0.29 z m -15.12,-3 h 13.09 L 295,135.2 c -0.28,-3.73 -6.29,-9.24 -10.2,-9.24 -3.91,0 -9.93,5.51 -10.21,9.24 z m 18.26,-8.87 z"
           id="path990" />
        <path
           class="cls-2"
           d="m 284.78,120.27 a 1.5,1.5 0 0 1 -1.5,-1.5 v -10.36 a 1.5,1.5 0 1 1 3,0 v 10.36 a 1.5,1.5 0 0 1 -1.5,1.5 z"
           id="path992" />
        <g
           id="g998">
          <path
             class="cls-1"
             d="m 354.35,333.75 c 0,0 -65,-86.07 -65,-187.9 h -9.13 c 0,101.83 -65,187.9 -65,187.9 h 39.24 v -7.66 a 30.11,30.11 0 1 1 60.21,0 v 7.67 z M 270.08,276.6 283.32,226 a 1.48,1.48 0 0 1 2.91,0 l 13.24,50.64 z"
             id="path994" />
          <path
             class="cls-2"
             d="m 357.36,335.25 h -44.21 v -9.17 a 28.61,28.61 0 1 0 -57.21,0 v 9.16 h -43.75 l 1.81,-2.41 c 0.17,-0.21 16.38,-21.83 32.38,-55.57 14.75,-31.09 32.33,-79.13 32.33,-131.42 v -1.51 h 12.13 v 1.5 c 0,52.3 17.58,100.33 32.33,131.42 16,33.74 32.22,55.36 32.38,55.57 z m -41.21,-3 h 35.26 a 373.22,373.22 0 0 1 -30.92,-53.62 c -14.75,-31.09 -32.31,-79 -32.64,-131.28 h -6.15 c -0.33,52.3 -17.89,100.19 -32.64,131.28 a 373.22,373.22 0 0 1 -30.92,53.62 h 34.8 v -6.16 a 31.61,31.61 0 1 1 63.21,0 z M 301.41,278.1 h -33.27 l 13.73,-52.52 a 3,3 0 0 1 5.81,0 z m -29.39,-3 h 25.51 l -12.75,-48.76 v 0 z"
             id="path996" />
        </g>
        <g
           id="g1004">
          <rect
             class="cls-1"
             x="240.87"
             y="276.60001"
             width="87.809998"
             height="8.6899996"
             rx="1.13"
             id="rect1000" />
          <path
             class="cls-2"
             d="M 327.55,286.8 H 242 a 2.64,2.64 0 0 1 -2.63,-2.64 v -6.42 A 2.64,2.64 0 0 1 242,275.1 h 85.55 a 2.64,2.64 0 0 1 2.63,2.64 v 6.42 a 2.64,2.64 0 0 1 -2.63,2.64 z m -85.18,-3 h 84.81 v -5.7 h -84.81 z"
             id="path1002" />
        </g>
        <g
           id="g1010">
          <rect
             class="cls-1"
             x="258.45001"
             y="231.09"
             width="52.639999"
             height="8.6899996"
             rx="1.13"
             id="rect1006" />
          <path
             class="cls-2"
             d="m 310,241.29 h -50.41 a 2.64,2.64 0 0 1 -2.64,-2.64 v -6.42 a 2.64,2.64 0 0 1 2.64,-2.64 H 310 a 2.64,2.64 0 0 1 2.64,2.64 v 6.42 a 2.64,2.64 0 0 1 -2.64,2.64 z m -50,-3 h 49.6 v -5.7 H 260 Z"
             id="path1008" />
        </g>
        <path
           class="cls-2"
           d="m 295,184.42 h -20.47 a 1.5,1.5 0 0 1 0,-3 H 295 a 1.5,1.5 0 0 1 0,3 z"
           id="path1012" />
        <path
           class="cls-2"
           d="M 330.67,295.9 H 238.9 a 0.5,0.5 0 0 1 -0.5,-0.5 0.5,0.5 0 0 1 0.5,-0.5 h 91.77 a 0.5,0.5 0 0 1 0.5,0.5 0.5,0.5 0 0 1 -0.5,0.5 z"
           id="path1014" />
        <path
           class="cls-2"
           d="m 273.12,265.3 h -19.46 a 0.5,0.5 0 0 1 -0.5,-0.5 0.5,0.5 0 0 1 0.5,-0.5 h 19.46 a 0.5,0.5 0 0 1 0.5,0.5 0.5,0.5 0 0 1 -0.5,0.5 z"
           id="path1016" />
        <path
           class="cls-2"
           d="m 315.84,265.3 h -19.41 a 0.5,0.5 0 0 1 -0.5,-0.5 0.5,0.5 0 0 1 0.5,-0.5 h 19.41 a 0.5,0.5 0 0 1 0.5,0.5 0.5,0.5 0 0 1 -0.5,0.5 z"
           id="path1018" />
        <path
           class="cls-2"
           d="m 276.2,253.35 h -17.75 a 0.5,0.5 0 0 1 -0.5,-0.5 0.51,0.51 0 0 1 0.5,-0.5 h 17.75 a 0.5,0.5 0 0 1 0.5,0.5 0.5,0.5 0 0 1 -0.5,0.5 z"
           id="path1020" />
        <path
           class="cls-2"
           d="m 311,253.35 h -17.74 a 0.5,0.5 0 0 1 -0.5,-0.5 0.5,0.5 0 0 1 0.5,-0.5 H 311 a 0.5,0.5 0 0 1 0.5,0.5 0.5,0.5 0 0 1 -0.5,0.5 z"
           id="path1022" />
        <path
           class="cls-2"
           d="m 299.75,219.58 h -30.1 a 0.5,0.5 0 0 1 0,-1 h 30.1 a 0.5,0.5 0 0 1 0,1 z"
           id="path1024" />
        <path
           class="cls-2"
           d="m 296.71,207.63 h -24 a 0.5,0.5 0 0 1 -0.5,-0.5 0.5,0.5 0 0 1 0.5,-0.5 h 24 a 0.5,0.5 0 0 1 0.5,0.5 0.5,0.5 0 0 1 -0.5,0.5 z"
           id="path1026" />
        <path
           class="cls-2"
           d="m 294.24,195.53 h -18.83 a 0.5,0.5 0 0 1 -0.5,-0.5 0.5,0.5 0 0 1 0.5,-0.5 h 18.83 a 0.5,0.5 0 0 1 0.5,0.5 0.5,0.5 0 0 1 -0.5,0.5 z"
           id="path1028" />
        <path
           class="cls-2"
           d="m 290.64,171.32 h -11.79 a 0.5,0.5 0 0 1 0,-1 h 11.79 a 0.5,0.5 0 0 1 0,1 z"
           id="path1030" />
        <path
           class="cls-2"
           d="m 289.77,159.22 h -10 a 0.5,0.5 0 0 1 -0.5,-0.5 0.5,0.5 0 0 1 0.5,-0.5 h 10 a 0.5,0.5 0 0 1 0.5,0.5 0.51,0.51 0 0 1 -0.5,0.5 z"
           id="path1032" />
        <path
           class="cls-2"
           d="m 296.49,136.07 h -23.43 a 0.5,0.5 0 0 1 0,-1 h 23.43 a 0.5,0.5 0 0 1 0,1 z"
           id="path1034" />
        <path
           class="cls-2"
           d="m 259.71,309.54 h -28.47 a 0.5,0.5 0 1 1 0,-1 h 28.47 a 0.5,0.5 0 0 1 0,1 z"
           id="path1036" />
        <path
           class="cls-2"
           d="m 338.27,309.54 h -29 a 0.5,0.5 0 0 1 0,-1 h 29 a 0.5,0.5 0 0 1 0,1 z"
           id="path1038" />
        <path
           class="cls-2"
           d="m 254.63,323.18 h -32 a 0.5,0.5 0 0 1 -0.5,-0.5 0.5,0.5 0 0 1 0.5,-0.5 h 32 a 0.51,0.51 0 0 1 0.5,0.5 0.5,0.5 0 0 1 -0.5,0.5 z"
           id="path1040" />
        <path
           class="cls-2"
           d="m 346.74,323.18 h -32.28 a 0.5,0.5 0 0 1 -0.5,-0.5 0.51,0.51 0 0 1 0.5,-0.5 h 32.28 a 0.5,0.5 0 0 1 0.5,0.5 0.5,0.5 0 0 1 -0.5,0.5 z"
           id="path1042" />
      </g>
      <g
         id="g1066">
        <g
           id="g1050">
          <circle
             class="cls-1"
             cx="536.44"
             cy="290.88"
             r="27.790001"
             id="circle1046" />
          <path
             class="cls-2"
             d="m 536.43,320.18 a 29.3,29.3 0 1 1 29.3,-29.3 29.33,29.33 0 0 1 -29.3,29.3 z m 0,-55.59 a 26.3,26.3 0 1 0 26.3,26.29 26.33,26.33 0 0 0 -26.3,-26.29 z"
             id="path1048" />
        </g>
        <path
           class="cls-2"
           d="m 536.43,334.51 a 1.5,1.5 0 0 1 -1.5,-1.5 v -48.45 a 1.5,1.5 0 0 1 3,0 V 333 a 1.5,1.5 0 0 1 -1.5,1.51 z"
           id="path1052" />
        <g
           id="g1058">
          <line
             class="cls-1"
             x1="536.44"
             y1="296.95999"
             x2="528.78003"
             y2="289.31"
             id="line1054" />
          <path
             class="cls-2"
             d="m 536.43,298.46 a 1.53,1.53 0 0 1 -1.06,-0.44 l -7.65,-7.65 a 1.5026061,1.5026061 0 1 1 2.12,-2.13 l 7.66,7.66 a 1.51,1.51 0 0 1 0,2.12 1.53,1.53 0 0 1 -1.07,0.44 z"
             id="path1056" />
        </g>
        <g
           id="g1064">
          <line
             class="cls-1"
             x1="536.44"
             y1="308.04999"
             x2="548.04999"
             y2="296.44"
             id="line1060" />
          <path
             class="cls-2"
             d="m 536.43,309.55 a 1.5,1.5 0 0 1 -1.06,-2.56 L 547,295.38 a 1.5,1.5 0 0 1 2.12,2.12 l -11.62,11.62 a 1.52,1.52 0 0 1 -1.07,0.43 z"
             id="path1062" />
        </g>
      </g>
      <g
         id="g1080">
        <path
           class="cls-1"
           d="m 28.94,334.53 a 27.79,27.79 0 1 1 50.72,0 z"
           id="path1068" />
        <g
           id="g1074">
          <line
             class="cls-1"
             x1="54.299999"
             y1="329.23999"
             x2="61.950001"
             y2="321.57999"
             id="line1070" />
          <path
             class="cls-2"
             d="m 54.3,330.74 a 1.53,1.53 0 0 0 1.06,-0.44 L 63,322.65 a 1.5026061,1.5026061 0 1 0 -2.12,-2.13 l -7.65,7.66 a 1.5,1.5 0 0 0 1.06,2.56 z"
             id="path1072" />
        </g>
        <path
           class="cls-2"
           d="m 52.8,334.53 v -17.69 a 1.5,1.5 0 0 1 3,0 v 17.69 z"
           id="path1076" />
        <path
           class="cls-2"
           d="m 78,334.53 a 26.29,26.29 0 1 0 -47.41,0 H 27.3 a 29.29,29.29 0 1 1 54,0 z"
           id="path1078" />
      </g>
      <path
         class="cls-2"
         d="M 567.83,335.25 H 1.5 a 1.5,1.5 0 0 1 0,-3 h 566.33 a 1.5,1.5 0 0 1 0,3 z"
         id="path1082" />
      <polygon
         class="cls-4"
         points="143.17,333.75 96.67,333.75 119.92,303.02 "
         id="polygon1084" />
      <path
         class="cls-2"
         d="M 143.17,335.25 H 96.66 a 1.5,1.5 0 0 1 -1.19,-2.41 l 23.25,-30.72 a 1.55,1.55 0 0 1 2.39,0 l 23.25,30.72 a 1.5,1.5 0 0 1 -1.19,2.41 z m -43.49,-3 h 40.47 l -20.23,-26.74 z"
         id="path1086" />
      <path
         class="cls-2"
         d="m 129.15,334.25 a 0.49,0.49 0 0 1 -0.48,-0.36 l -9.23,-30.72 a 0.5,0.5 0 0 1 0.33,-0.62 0.51,0.51 0 0 1 0.63,0.33 l 9.22,30.72 a 0.51,0.51 0 0 1 -0.33,0.63 z"
         id="path1088" />
      <path
         class="cls-6"
         d="m 325.3,270.75 c 3.18,0 7.27,0.27 10,1.52 a 20,20 0 0 0 -13.21,-5 c -8.58,0 -16.91,6.33 -19.81,13.88 2.48,-10.27 6.46,-16.07 15.69,-21.42 9.92,-4.86 21.75,-1.51 29.11,7.37 4.48,5.4 6.31,13.31 5.5,19.77 6.16,0.75 12.36,-1.63 18.59,-7.07 a 49.48,49.48 0 0 0 10.77,-16.5 13.6,13.6 0 0 1 8.5,-6.79 c 0,-2.6 -2.1,-5.17 -5.31,-6.61 1.68,-0.22 5.26,-0.22 6.84,1.56 0.65,-1.18 0.35,-4.18 0.06,-5.48 1.85,0.61 4,4 4.13,5.71 a 6.27,6.27 0 0 0 2.3,-3.65 9.52,9.52 0 0 1 0.81,8.18 14.37,14.37 0 0 1 6.66,-1.19 14.33,14.33 0 0 0 -5.78,4.93 10.05,10.05 0 0 1 6.39,1.29 13.69,13.69 0 0 0 -7,2 v 0 a 4.13,4.13 0 0 1 -0.32,0.49 c 2,1.71 2.43,3.7 0.93,5 -1.5,1.3 -4.09,0.87 -5.13,-2.36 v 0 c -2.58,1.7 -3.63,4.44 -4.6,8.18 -0.74,3.88 -0.19,9 -0.58,13 -1,8.29 -6.68,16.84 -15.51,23.46 -2.41,1 -6.5,22.51 -9.67,22.49 -3.37,0 -5,-19.14 -9.17,-19.54 -9.5,-2.83 -16.08,-8.11 -16.44,-18.61 a 19.75,19.75 0 0 1 0.52,-4.29 15.26,15.26 0 0 0 -27.39,9.84 17.22,17.22 0 0 1 9.8,-18.88 18,18 0 0 1 12.43,-1.14 c -3.3,-3.12 -6.63,-4.32 -11.53,-4.32 a 18.45,18.45 0 0 0 -17.35,11.58 c 2.23,-9.36 9.69,-17.4 19.77,-17.4 z"
         id="path1090" />
      <path
         class="cls-8"
         d="m 377.28,272.27 c 0,0 -4,31.73 -18.84,29.5 -8.63,-1.29 -6.81,-15.44 -6.81,-15.44"
         id="path1108" />
    </g>
  </g>
</svg>
